PathFileType	4	(X/Y/Z)	C:/Users/opensim2020/Desktop/walking_exp_matlab/subject01_walking07_straight_04.trc																																																																																																																															
DataRate	CameraRate	NumFrames	NumMarkers	Units	OrigDataRate	OrigDataStartFrame	OrigNumFrames																																																																																																																											
100	100	7	43	mm	100	2812	176																																																																																																																											
Frame#	Time	LFHD			RFHD			LBHD			RBHD			C7			T10			CLAV			STRN			RBAK			LSHO			LUPA			LELB			LFRM			LWRA			LWRB			LFIN			RSHO			RUPA			RELB			RFRM			RWRA			RWRB			RFIN			LASI			RASI			LPSI			RPSI			LTHI			LKNE			LTIB			LANK			LHEE			LTOE			RTHI			RKNE			RTIB			RANK			RHEE			RTOE			*39			*40			*41			*42		
		X1	Y1	Z1	X2	Y2	Z2	X3	Y3	Z3	X4	Y4	Z4	X5	Y5	Z5	X6	Y6	Z6	X7	Y7	Z7	X8	Y8	Z8	X9	Y9	Z9	X10	Y10	Z10	X11	Y11	Z11	X12	Y12	Z12	X13	Y13	Z13	X14	Y14	Z14	X15	Y15	Z15	X16	Y16	Z16	X17	Y17	Z17	X18	Y18	Z18	X19	Y19	Z19	X20	Y20	Z20	X21	Y21	Z21	X22	Y22	Z22	X23	Y23	Z23	X24	Y24	Z24	X25	Y25	Z25	X26	Y26	Z26	X27	Y27	Z27	X28	Y28	Z28	X29	Y29	Z29	X30	Y30	Z30	X31	Y31	Z31	X32	Y32	Z32	X33	Y33	Z33	X34	Y34	Z34	X35	Y35	Z35	X36	Y36	Z36	X37	Y37	Z37	X38	Y38	Z38	X39	Y39	Z39	X40	Y40	Z40	X41	Y41	Z41	X42	Y42	Z42	X43	Y43	Z43
																																																																																																																																		
45	0.44	-403.66724	1667.5332	1047.21997	-359.35062	1671.32983	1153.77026	-516.6062	1632.76245	1088.27417	-473.79114	1637.22034	1202.10693	-554.93195	1431.76477	1114.60754	-583.31012	1136.7937	1114.63757	-408.78299	1369.57593	1116.47778	-361.08398	1216.75671	1106.92456	-604.35602	1233.6416	1185.6134	-463.81601	1401.22229	955.01929	-467.5184	1218.90796	861.68707	-462.44989	1065.60889	855.45428	-395.16757	969.92804	837.73529	-292.54053	880.36163	869.55249	-339.79935	860.72119	837.96997	-272.56299	809.58502	835.70337	-475.51892	1391.48145	1267.53772	-540.08295	1187.77039	1357.60168	-538.55884	1064.23975	1356.95984	-520.74152	946.63678	1388.29541	-447.60373	823.69751	1375.59265	-494.10202	828.66162	1411.0498	-465.45218	746.08319	1408.7533	-410.64676	932.49591	1001.18054	-397.05609	939.85413	1215.78394	-592.38318	942.7995	1063.79407	-582.4613	950.24005	1209.26233	-434.43958	594.23895	941.13458	-452.4028	461.05936	946.27124	-601.7077	351.32413	939.48376	-764.47174	206.66754	991.21069	-806.09125	223.82524	1047.15161	-723.51019	64.4217	995.24438	-408.16162	609.00244	1277.94397	-371.83987	454.9523	1251.18628	-411.6792	281.6326	1262.67908	-425.35089	76.92365	1217.15369	-475.69492	38.10717	1170.30396	-284.71304	37.86613	1212.15552	-374.10385	1706.19104	1134.63147	-1973.1842	1023.40063	3101.89111	-2012.52673	1022.00964	3140.73975	NaN	NaN	NaN
46	0.45	-395.04562	1668.30957	1048.44165	-350.5596	1672.13293	1154.82605	-507.86658	1633.23132	1089.73914	-464.87009	1637.70874	1203.39844	-545.70294	1432.42566	1116.2489	-574.27435	1137.43103	1116.78516	-399.58005	1370.04285	1117.32483	-352.06271	1217.146	1107.75037	-595.04523	1234.37292	1187.95459	-455.35718	1401.63049	956.0849	-460.84229	1218.90515	863.16199	-457.69766	1065.82483	857.10144	-393.01788	968.46545	839.3089	-292.68082	876.12573	870.53174	-340.63654	857.75793	839.10144	-275.10788	804.56116	836.74969	-465.43106	1392.09314	1268.69763	-528.61938	1188.28113	1359.74854	-526.47534	1064.64941	1359.28577	-507.15811	947.30939	1390.72913	-432.23575	825.31757	1377.83191	-478.80484	829.56519	1413.24731	-448.75031	747.57416	1411.18506	-402.04648	932.99695	1002.50366	-388.42325	940.01349	1217.37561	-583.65216	942.66339	1065.00122	-573.84332	950.40356	1210.37732	-420.23172	595.55664	941.64276	-434.88889	462.22064	947.16168	-583.91241	353.12997	940.18756	-747.52576	210.75677	992.93829	-788.88574	226.6454	1049.94458	-706.59723	68.58527	991.42383	-401.97479	608.83154	1278.83496	-367.79373	454.33734	1251.67163	-409.71317	281.56619	1263.27295	-425.23813	76.91348	1217.16638	-475.83322	38.32813	1170.27161	-284.49075	37.64972	1211.95251	-365.44009	1706.96631	1135.60132	-1973.19812	1023.25104	3101.99292	-2012.50989	1022.02118	3140.86182	NaN	NaN	NaN
47	0.46	-386.33801	1668.98889	1049.31152	-341.69263	1672.89551	1155.63147	-498.92212	1633.51501	1090.49756	-455.85425	1638.19495	1204.4823	-536.42224	1432.97852	1117.6853	-565.41815	1138.0918	1118.78296	-390.33957	1370.4093	1118.08606	-343.13327	1217.3573	1108.45728	-586.24146	1235.26648	1190.27136	-446.97189	1401.99121	956.99188	-454.56036	1218.97253	864.69507	-452.60385	1065.84485	859.41028	-390.97916	967.18408	840.77985	-293.02463	871.99951	871.37726	-341.62881	854.97034	840.12061	-277.56625	799.99689	837.60187	-455.35446	1392.67249	1269.72156	-517.04144	1188.75012	1361.82544	-514.3205	1065.07263	1361.58936	-493.43573	947.91345	1393.07373	-416.85272	827.10321	1380.00183	-463.10107	830.52161	1415.49329	-431.89346	749.08771	1413.4585	-393.17645	933.55994	1003.72162	-379.90286	940.164	1218.88916	-575.00775	942.5567	1066.04932	-565.58087	950.47638	1211.41833	-406.2482	597.14722	942.04944	-417.40622	463.97855	948.01007	-566.04285	355.13461	942.00775	-730.29553	214.28485	994.56531	-770.80927	228.36928	1052.98755	-688.49823	72.28976	988.59863	-396.0567	608.47852	1279.40894	-363.78552	453.80966	1252.11389	-407.41293	281.39996	1263.67017	-425.00955	76.91762	1217.0072	-475.71796	38.40147	1170.14856	-284.35071	37.48579	1211.71558	-356.73401	1707.68567	1136.56665	-1973.17419	1023.43854	3101.8208	-2012.44568	1021.88013	3140.75171	NaN	NaN	NaN
48	0.47	-377.59872	1669.54187	1050.05005	-332.78952	1673.59607	1156.37561	-490.10471	1633.93262	1091.60437	-446.77417	1638.67847	1205.38843	-527.276	1433.56543	1119.05188	-556.60724	1138.71802	1120.59705	-381.23294	1370.70837	1118.72559	-334.33539	1217.56836	1109.07849	-577.18091	1236.13843	1192.35388	-438.61206	1402.34753	957.86719	-448.12106	1218.96191	866.22534	-447.91852	1066.03186	861.44568	-389.08603	965.90057	842.28931	-293.56351	867.96204	872.21783	-342.69156	852.41406	841.0697	-280.22751	795.46692	838.47656	-445.29251	1393.18494	1270.65417	-505.33704	1189.17175	1363.77222	-502.08966	1065.48425	1363.87085	-479.15552	948.39417	1395.28796	-401.23947	828.88361	1382.08118	-447.59814	831.69232	1417.77271	-414.93921	750.79578	1415.79736	-384.39444	934.20776	1004.96722	-371.50668	940.30841	1220.45325	-566.37903	942.6203	1067.02722	-557.28754	950.39636	1212.2395	-392.37527	599.12103	942.24097	-400.00266	466.14471	948.75085	-548.09149	357.16006	943.69482	-712.02802	216.43236	996.28619	-751.97644	228.88661	1055.98254	-669.48102	75.47128	986.04474	-390.35742	608.11578	1279.71362	-359.6593	452.98596	1252.43591	-404.83844	281.11954	1263.73828	-424.76984	76.92019	1216.84436	-475.93243	38.33439	1169.99121	-284.24301	37.29309	1211.49646	-347.92819	1708.47864	1137.37634	-1973.11108	1023.30225	3101.91821	-2012.54028	1021.95673	3140.78198	NaN	NaN	NaN
49	0.48	-368.82428	1670.0979	1050.64746	-323.78464	1674.2251	1156.86755	-481.16559	1634.3407	1092.37708	-437.61313	1639.1427	1206.11621	-518.12189	1434.17297	1120.38843	-548.0304	1139.42676	1122.28394	-372.14731	1371.06384	1119.29565	-325.64142	1217.72241	1109.69165	-568.1239	1237.01147	1194.22083	-430.23358	1402.62622	958.64612	-441.80707	1218.96326	867.64697	-443.9502	1066.48755	862.96179	-387.12875	964.8252	843.83472	-294.24902	864.09082	872.99622	-343.97998	850.07251	842.14966	-283.15491	791.15936	839.2674	-435.33679	1393.76807	1271.51428	-493.56992	1189.60437	1365.69641	-489.7554	1065.91064	1366.10022	-465.12253	949.12274	1397.52478	-385.60468	830.7478	1384.10779	-431.77954	832.79254	1419.92932	-397.86084	752.57288	1418.16089	-375.71121	935.01282	1006.1059	-363.11655	940.50757	1221.95874	-557.79315	942.78479	1067.85583	-549.05304	950.33496	1212.99866	-378.4436	601.19781	942.42523	-382.68478	468.55551	949.3288	-529.7157	358.82727	945.40869	-692.98932	217.53758	997.93829	-732.73938	228.36397	1058.58557	-649.55188	77.3371	983.60132	-384.01068	608.0094	1280.47729	-355.70587	452.46423	1252.74805	-401.96423	280.76282	1263.83813	-424.47614	76.92912	1216.74158	-476.04163	38.45511	1169.94629	-284.18979	37.21409	1211.28564	-339.0419	1709.07642	1137.8396	-1973.17603	1023.43512	3101.99219	-2012.59302	1021.96991	3140.74512	NaN	NaN	NaN
50	0.49	-360.01697	1670.49939	1051.04211	-314.69998	1674.78979	1157.22742	-472.26273	1634.73914	1093.21387	-428.40396	1639.66663	1206.75037	-509.07806	1434.84583	1121.6106	-539.34125	1140.05322	1123.81787	-363.04651	1371.24841	1119.75439	-316.93692	1217.89429	1110.28918	-559.11774	1237.92139	1195.96375	-421.86023	1402.89355	959.34473	-435.7915	1219.10364	869.12329	-439.23672	1066.5415	865.30688	-385.12003	963.9624	845.27142	-295.0542	860.39368	873.81537	-345.23978	847.88306	843.04596	-286.31293	787.11487	839.98615	-425.40076	1394.21033	1272.22681	-481.76306	1190.08643	1367.54175	-477.36871	1066.40234	1368.25708	-450.9646	949.9118	1399.66418	-369.92654	832.68768	1386.01025	-415.94128	834.10785	1422.05884	-380.76141	754.48053	1420.37109	-367.33194	935.72455	1007.23047	-354.74307	940.7738	1223.55103	-549.12073	943.15637	1068.61646	-540.9295	950.336	1213.7135	-364.58176	603.34058	942.6203	-365.42282	470.92462	949.78772	-511.38287	360.07104	946.89661	-673.43365	217.55342	999.51965	-713.3374	226.87195	1060.9823	-627.24042	79.08227	982.39386	-378.32315	607.74542	1280.83875	-351.7045	451.63577	1252.86719	-399.02841	280.31622	1264.00195	-423.96249	76.82194	1216.40149	-475.61478	38.72352	1169.91931	-284.10568	37.21577	1211.16125	-330.0441	1709.64246	1138.14941	-1973.1344	1023.38104	3101.99414	-2012.51257	1021.98785	3140.55859	NaN	NaN	NaN
51	0.5	-351.06055	1671.09961	1051.1781	-305.57712	1675.27393	1157.40808	-463.07358	1634.95361	1094.12756	-419.11432	1640.15479	1207.25854	-499.98782	1435.4408	1122.70044	-530.75067	1140.68066	1125.19263	-354.10236	1371.51648	1120.25476	-308.26746	1218.02698	1110.89209	-550.17365	1238.80225	1197.49133	-413.55447	1403.16272	960.02118	-429.48734	1219.07629	870.42969	-434.69995	1066.97363	867.31647	-383.27496	963.00464	846.83936	-296.02527	856.86072	874.57703	-346.67471	845.91858	843.9209	-289.62634	783.25171	840.64935	-415.57156	1394.76807	1272.86365	-469.9104	1190.60706	1369.22998	-464.81122	1066.91516	1370.35022	-436.71716	950.78784	1401.76086	-354.24612	834.7218	1387.78003	-399.99994	835.42188	1424.05042	-363.57477	756.46686	1422.46851	-359.09082	936.56012	1008.37451	-346.36905	941.0755	1224.93481	-540.50519	943.66156	1069.29517	-532.55377	950.36414	1214.35266	-350.55267	605.52948	942.84363	-348.26517	473.2811	950.06854	-492.96912	360.85846	948.3064	-653.90442	216.91653	1001.05804	-693.8291	224.1537	1062.87134	-604.04993	80.07008	981.22931	-372.54089	607.41833	1281.40601	-347.71121	450.87637	1253.01855	-396.03894	280.01865	1263.99988	-423.69162	76.82151	1216.31543	-475.48053	38.79226	1169.88989	-284.02484	37.17219	1211.07568	-321.01425	1709.91992	1138.2937	-1973.19861	1023.55182	3102.04541	-2012.5813	1022.06781	3140.7124	NaN	NaN	NaN
